# xmcd
#
# Track frame offsets:
#	150
#	13594
#	35641
#	47115
#	64593
#	75367
#	95384
#	105103
#	123306
#	138752
#	151490
#	169561
#
# Disc length: 2513 seconds
#
# Revision: 1
# Processed by: cddbd v1.5.2PL0 Copyright (c) Steve Scherf et al.
# Submitted via: EasyCDDAExtractor 6.5.0.1
#
DISCID=8409cf0c
DTITLE=Christie Lynn - SINGS COUNTRY - GOSPEL - BLUEGRASS 
DYEAR=2006
DGENRE=Country
TTITLE0=Bluegrass Boogie
TTITLE1=Model Church
TTITLE2=Beneath The Sweet Magnolia Tree
TTITLE3=Lonesome Dove
TTITLE4=Lonely Sounds Of Night
TTITLE5=Down Home
TTITLE6=I've Cried My Last Tear Over You
TTITLE7=Moonshine Quiver
TTITLE8=High Lonesome Stranger
TTITLE9=Closest Neighbor
TTITLE10=Gospel Medley
TTITLE11=We're Gonna Miss You
EXTD=
EXTT0=
EXTT1=
EXTT2=
EXTT3=
EXTT4=
EXTT5=
EXTT6=
EXTT7=
EXTT8=
EXTT9=
EXTT10=
EXTT11=
PLAYORDER=
